<svg width="16" height="16" viewBox="0 0 16 16" fill="none" xmlns="http://www.w3.org/2000/svg">
<rect width="16" height="16" rx="8" fill="#FCFAF1"/>
<path d="M3.00701 3.00463C3.00263 3.00957 3 3.06982 3 3.13897V3.19576C3 3.23475 3.02952 3.2674 3.06831 3.27133V3.27133C3.18303 3.2822 3.24696 3.29603 3.32753 3.32665C3.55085 3.41061 3.69272 3.58841 3.75928 3.86598V3.86598C3.77499 3.93029 3.78314 3.99622 3.78357 4.06243L3.78818 4.7777C3.79431 5.53928 3.79606 5.6025 3.81358 5.74474C3.9248 6.63868 4.2462 7.31136 4.80406 7.81711C5.40834 8.36434 6.28409 8.69129 7.26757 8.73476V8.73476C7.35425 8.73862 7.42251 8.81007 7.42242 8.89683L7.4217 9.60203C7.42083 10.0752 7.4182 10.82 7.4147 11.2576L7.40931 11.9569C7.40882 12.0205 7.39943 12.0836 7.38142 12.1446V12.1446C7.31486 12.3678 7.187 12.5249 6.98382 12.6345C6.89275 12.6839 6.78328 12.7224 6.66943 12.7452C6.55645 12.7669 6.35153 12.7807 6.25081 12.7738V12.7738C6.20251 12.7701 6.16156 12.8089 6.16265 12.8573L6.16324 12.8834L6.16379 12.908C6.16494 12.9588 6.20702 12.9991 6.25782 12.998V12.998C7.5627 12.9733 8.43846 12.9733 9.74334 12.998V12.998C9.79414 12.9991 9.83622 12.9588 9.83737 12.908L9.83792 12.8834L9.83851 12.8573C9.8396 12.8089 9.79865 12.7701 9.75034 12.7738V12.7738C9.64876 12.7807 9.44471 12.7669 9.32911 12.7442C9.21351 12.7205 9.10841 12.6839 9.01734 12.6345C8.81416 12.5249 8.6898 12.3728 8.62062 12.1466V12.1466C8.60145 12.0843 8.59151 12.0196 8.59109 11.9545L8.58646 11.223C8.58296 10.7666 8.58033 10.0218 8.57946 9.56746L8.57875 8.89771C8.57865 8.81046 8.6473 8.73862 8.73447 8.73476V8.73476C9.60672 8.69623 10.4019 8.43249 10.9913 7.98799C11.2155 7.81809 11.4563 7.57115 11.6078 7.35581C11.9249 6.90439 12.1053 6.40161 12.1885 5.74079C12.2051 5.60349 12.2068 5.53335 12.213 4.7777L12.2176 4.06243C12.218 3.99622 12.2262 3.93029 12.2419 3.86598V3.86598C12.3146 3.56273 12.4775 3.379 12.7428 3.30195C12.7866 3.28911 12.946 3.26639 12.9889 3.26639C12.9994 3.26639 13.0012 3.24367 12.9994 3.13502V3.13502C12.998 3.06272 12.9387 3.00502 12.8664 3.0055L12.8479 3.00562C12.3102 3.00759 11.8233 3.21997 11.4905 3.59631C11.2996 3.81264 11.1743 4.05168 11.0789 4.37765C11.0053 4.62854 10.9729 4.86858 10.9606 5.24295C10.9563 5.38222 10.9458 5.56002 10.9387 5.63806C10.8722 6.31864 10.6874 6.90044 10.3975 7.33606C10.324 7.44669 10.169 7.62943 10.0761 7.71438C9.80815 7.95836 9.47361 8.11344 9.0909 8.17073C8.97355 8.18851 8.6609 8.20234 8.61098 8.19148V8.19148C8.59209 8.18744 8.57858 8.17075 8.57858 8.15143V6.45397C8.57946 4.58706 8.58471 4.23442 8.61273 4.09415C8.67579 3.78201 8.85269 3.55976 9.1198 3.45802C9.29758 3.38987 9.49112 3.36517 9.6978 3.38394C9.76874 3.38987 9.83529 3.39777 9.84668 3.40073C9.86595 3.40666 9.86595 3.40666 9.86595 3.27726V3.27726C9.86595 3.20579 9.80801 3.14786 9.73655 3.14786H8.00058H6.26461C6.19315 3.14786 6.13521 3.20579 6.13521 3.27726V3.27726C6.13521 3.40666 6.13521 3.40666 6.15536 3.40073C6.16587 3.39777 6.23242 3.38987 6.30336 3.38394C6.51004 3.36517 6.70358 3.38987 6.88136 3.45802C7.13533 3.55482 7.31486 3.76917 7.37792 4.04872C7.41732 4.22059 7.41645 4.18009 7.41995 6.22678L7.42425 8.15057C7.4243 8.17036 7.41043 8.18745 7.39105 8.19148V8.19148C7.34026 8.20234 7.02849 8.18851 6.91026 8.17073C6.52755 8.11344 6.19301 7.95836 5.92503 7.71438C5.8322 7.62943 5.67719 7.44669 5.60363 7.33606C5.42585 7.06935 5.28398 6.73746 5.19027 6.37198C5.09832 6.0144 5.0554 5.68843 5.04052 5.24295C5.02826 4.86166 4.99585 4.62953 4.91791 4.36283C4.70072 3.61706 4.19191 3.15379 3.45277 3.02834C3.33191 3.00759 3.01839 2.99179 3.00701 3.00463Z" fill="#E6B31E"/>
</svg>
