<svg width="344" height="667" viewBox="0 0 344 667" fill="none" xmlns="http://www.w3.org/2000/svg">
<g clip-path="url(#clip0)">
<path d="M105.44 110.968C104.363 112.181 104.734 113.39 106.85 116.223C107.634 117.29 109.446 120.426 110.942 123.226C115.555 131.831 122.042 141.176 125.257 143.828C126.013 144.459 126.604 145.146 126.531 145.319C126.22 145.971 119.877 146.13 117.616 145.475C114.095 144.462 110.003 141.963 106.942 138.861C104.422 136.315 104.08 135.79 102.62 131.987C101.21 128.316 100.943 127.864 99.9574 127.61C98.9962 127.298 98.7241 127.441 97.8383 128.786C96.5501 130.666 96.855 131.947 98.8807 133.327C99.7194 133.929 101.591 135.758 103.014 137.395C104.396 139.047 106.409 141.124 107.448 142.003C110.465 144.625 116.004 147.12 120.681 147.981C123 148.419 125.029 148.956 125.229 149.233C125.762 149.891 123.288 151.239 119.869 152.072C117.862 152.567 115.927 152.64 113.377 152.332C109.297 151.809 107.124 150.777 105.342 148.57C104.459 147.489 103.712 147.004 102.769 146.983C101.644 146.975 101.43 147.148 100.942 148.554C100.674 149.438 100.63 150.542 100.897 150.995C101.374 151.87 101.589 151.944 104.585 152.197C105.503 152.277 107.45 152.842 108.892 153.434C112.631 155.015 116.163 155.083 121.2 153.593C123.521 152.941 126.731 151.685 128.34 150.883C129.948 150.08 131.384 149.436 131.5 149.495C131.616 149.554 132.359 152.218 133.162 155.406C133.965 158.594 135.405 163.195 136.328 165.599C138.628 171.587 143.889 182.245 148.165 189.729C150.119 193.114 152.795 198.378 154.152 201.424C156.891 207.705 156.876 207.909 154.131 210.984C151.936 213.424 151.019 213.592 147.686 212.217C146.127 211.567 143.577 211.012 142.055 210.943C140.532 210.874 137.8 210.332 135.977 209.723C131.809 208.241 121.887 202.853 114.922 198.227C110.273 195.129 93.1632 182.223 92.945 181.654C92.8947 181.523 93.644 180.918 94.5752 180.3C97.0553 178.603 99.8575 175.31 100.73 173.078C101.774 170.441 102.367 163.951 101.854 160.911C101.598 159.514 101.504 157.566 101.656 156.623C102.008 154.373 101.124 153.045 99.1461 152.886C96.1261 152.69 95.1197 156.156 97.6113 158.018C99.3636 159.295 100.082 162.017 99.7566 166.039C99.3018 172.037 96.5287 177.597 93.433 178.665C92.0709 179.135 91.9779 178.771 92.6464 175.521C94.3467 167.411 90.9757 154.615 85.4472 148.009C84.1903 146.562 82.8971 144.533 82.4271 143.309C81.5208 140.949 80.1918 139.923 78.191 140.068C76.4302 140.23 75.6514 141.489 76.3228 143.237C76.7759 144.417 77.4159 144.989 79.7216 146.124C83.3625 147.936 85.1203 150.201 87.9526 156.846C90.9773 163.871 91.8216 169.965 90.417 174.706C89.9054 176.417 89.2345 176.252 87.2768 173.71C85.119 170.891 81.3355 167.246 75.7599 162.587C70.6914 158.396 65.9608 153.989 65.6587 153.202C65.3902 152.503 63.7183 152.288 62.2736 152.786C59.8796 153.612 59.9296 156.664 62.3549 157.015C66.8663 157.686 81.9851 169.547 86.8854 176.221C88.2185 177.989 88.3192 178.251 87.8847 178.945C87.311 179.886 84.4085 179.996 80.9884 179.245C74.8023 177.865 64.5162 170.92 63.0728 167.162C62.3175 165.195 60.9073 164.444 59.6137 165.336C58.5341 166.054 57.6497 167.646 57.9014 168.302C57.9854 168.521 59.3557 169.533 60.9736 170.46C62.5503 171.401 65.447 173.223 67.4224 174.471C72.5435 177.704 76.5664 179.781 80.8265 181.38C82.8573 182.165 84.4829 182.99 84.443 183.251C84.1637 185.08 74.8298 187.31 70.3184 186.639C64.615 185.785 56.4363 181.528 55.4124 178.862C55.1103 178.075 54.3283 177.256 53.5155 176.844C52.2382 176.195 51.9325 176.251 51.0929 176.986C49.9077 178.039 49.1303 179.544 49.3988 180.244C49.5163 180.55 50.4208 181.079 51.3987 181.435C52.3767 181.79 55.3867 183.177 58.0575 184.533C63.4402 187.23 66.4398 188.224 70.1139 188.541C73.0681 188.808 78.0938 188.263 82.5789 187.161C84.3796 186.738 85.925 186.501 85.9921 186.676C86.1935 187.201 80.3528 192.928 78.3498 194.163C76.1572 195.514 73.7773 195.889 71.7143 195.265C68.3006 194.165 67.4646 194.058 66.2264 194.485C63.7085 195.354 63.7585 198.405 66.3657 198.743C68.4931 199.049 73.9288 197.866 77.9893 196.268C82.4625 194.526 84.1004 193.071 88.3517 187.1C89.7714 185.076 91.1357 183.516 91.3847 183.677C91.617 183.795 94.1253 185.702 96.9576 187.843C109.881 197.64 120.365 204.368 134.351 211.819C145.226 217.62 147.693 219.54 147.875 222.448C148.02 224.773 147.092 225.886 142.574 228.484C140.43 229.718 138.098 231.315 137.341 232.021C136.625 232.714 135.463 233.461 134.803 233.689C132.037 234.643 112.839 234.435 102.247 233.387C98.4978 232.998 89.2827 231.276 88.0557 230.759C87.9977 230.73 88.4834 228.83 89.1574 226.568C89.8146 224.262 90.3788 221.593 90.3733 220.605C90.4177 218.164 85.1811 204.527 83.5164 202.627C81.4775 200.36 78.8821 200.662 78.2017 203.272C77.7573 205.158 78.7302 206.109 81.611 206.551C82.7617 206.748 83.9216 207.09 84.1874 207.296C84.968 207.868 87.2107 214.073 87.7224 216.866C88.6284 222.147 87.4139 228.357 85.6721 227.473C85.3237 227.296 83.634 223.87 81.8912 219.819C79.0008 213.144 78.5245 212.269 76.7282 210.512C72.3369 206.137 58.7636 198.544 56.6585 199.271C55.6679 199.612 55.2738 201.629 55.8444 203.115C56.2473 204.164 56.5208 204.268 57.9668 204.016C58.8595 203.906 60.1404 203.712 60.7931 203.586C63.3304 203.255 69.4127 206.799 74.053 211.336C78.3604 215.493 82.1847 222.044 81.9186 224.759C81.7694 226.196 81.2482 226.178 78.0975 224.79C76.5803 224.126 72.786 223.009 69.6975 222.392C66.5922 221.731 62.8315 220.702 61.3555 220.023C59.2744 219.107 58.3636 218.927 57.5472 219.357C56.2522 220.001 55.9896 221.874 56.9744 223.465C57.5256 224.413 57.9061 224.43 60.6086 224.042C66.0793 223.194 73.8792 224.76 79.0402 227.732C81.969 229.394 82.6608 230.343 81.9401 231.632C81.3509 232.775 74.1956 234.105 69.1413 233.968C59.7112 233.756 49.9799 231.421 47.5087 228.759C46.6518 227.867 46.1048 227.66 45.2793 227.945C43.7108 228.486 42.6163 230.992 43.3353 232.377C43.8619 233.383 44.218 233.458 46.8638 233.288C48.6414 233.17 51.0912 233.463 52.98 234C60.9994 236.381 69.2633 236.599 78.3173 234.614C79.7053 234.333 81.0198 234.226 81.2443 234.445C81.9256 235.002 79.4492 240.361 77.5496 242.353C75.1897 244.85 70.1168 247.342 65.8123 248.184C61.7142 248.954 59.9003 248.491 58.1503 246.125C57.3669 245.058 54.8336 246.13 54.1157 247.912C53.2906 249.781 53.6921 250.583 55.6053 251.061C58.0901 251.689 62.2953 250.832 69.8075 248.241C77.3197 245.649 78.3915 245.032 81.142 241.361C81.9711 240.233 82.8093 239.251 82.9744 239.194C83.7587 238.924 83.4122 240.578 81.739 244.62C79.0462 251.241 75.5179 254.834 72.3378 254.099C71.7418 254.008 70.7561 253.754 70.2014 253.649C69.2738 253.424 69.0184 253.611 68.3145 254.943C67.8478 255.797 67.6056 256.87 67.7734 257.307C68.193 258.4 71.3926 259.672 72.1252 259.023C72.4295 258.721 74.3976 257.151 76.4727 255.494C79.6183 252.974 80.588 251.847 82.0539 249.213C84.1993 245.305 85.7831 240.057 86.1068 235.787L86.3458 232.636L90.238 233.521C103.853 236.595 125.114 237.427 140.975 235.519C143.694 235.175 146.241 234.99 146.696 235.08C147.888 235.263 148.908 237.188 148.877 239.178C148.818 243.406 144.893 251.442 140.772 255.685C134.407 262.237 117.668 273.06 106.43 277.877L102.585 279.55L100.493 276.659C95.8921 270.277 93.1151 267.671 88.6459 265.649C85.1714 264.026 82.3977 263.498 76.7228 263.328C74.0344 263.265 71.0054 262.924 70.0197 262.67C67.8574 262.03 66.9984 262.228 66.088 263.631C65.522 264.469 65.5247 264.963 66.3031 266.625C67.3913 268.972 67.9461 269.078 70.8467 267.137C72.4537 266.087 73.1967 265.831 75.578 265.702C79.6376 265.44 85.2082 266.191 87.9111 267.387C90.4567 268.539 97.2479 274.66 96.8806 275.529C96.7581 275.819 95.5248 275.65 94.0334 275.175C85.4242 272.354 76.6047 273.367 68.2611 278.175C63.347 280.96 62.1541 282.114 62.5261 283.569C63.2701 286.48 65.7494 286.12 67.9142 282.75C68.7098 281.535 69.9671 280.062 70.6674 279.573C72.6446 278.148 78.1846 276.385 81.4999 276.133C85.344 275.797 91.9079 276.7 94.4122 277.865C96.1204 278.662 96.2701 278.808 95.8111 279.561C95.5403 279.951 93.834 280.985 92.0269 281.757C90.1953 282.587 86.7078 284.582 84.2521 286.221C81.7964 287.86 79.0105 289.613 78.0458 290.144C74.7968 291.908 74.2543 294.026 76.7509 295.293C78.3766 296.118 79.2343 295.674 80.6848 293.243C82.8805 289.466 88.523 285.292 93.9302 283.427C96.8195 282.43 98.4656 282.456 98.8516 283.461C99.909 286.215 91.4113 297.561 84.7705 302.178C83.5427 302.998 80.393 304.777 77.7037 306.052C75.0725 307.355 72.7148 308.763 72.4608 309.197C71.7891 310.369 72.9235 312.106 74.429 312.131C75.372 312.152 76.2297 311.708 77.9256 310.281C79.1521 309.215 82.6188 306.435 85.6083 304.117C92.0156 299.134 95.5761 295.382 98.9298 290.117L101.365 286.356L102.356 288.935C104.068 293.393 103.787 299.479 101.627 305.174C100.249 308.767 98.8677 310.283 94.9506 312.377C92.0976 313.955 91.7107 314.287 91.5356 315.535C91.4187 316.813 91.5194 317.075 92.4588 317.939C93.9466 319.257 95.4171 318.948 96.3002 317.109C96.6431 316.297 98.2265 313.969 99.77 311.902C102.783 307.943 105.153 302.67 105.726 298.563C105.884 297.271 105.817 294.175 105.53 291.601C105.26 289.071 105.198 286.964 105.405 286.893C105.611 286.822 106.35 287.408 107.058 288.154C108.04 289.251 108.726 290.796 110.163 294.903C112.559 301.749 112.506 304.291 110.065 307.064C108.331 308.999 108.159 310.741 109.385 312.595C109.893 313.31 110.307 313.415 111.339 313.059C113.816 312.205 114.226 311.568 114.146 309.17C114.098 307.949 114.078 305.828 114.079 304.491C114.149 302.24 113.863 301.25 111.211 294.344C108.744 287.919 107.999 286.345 106.708 284.81C105.818 283.83 105.1 282.692 105.107 282.343C105.11 281.5 108.217 279.488 110.983 278.534C115.564 276.954 123.376 271.734 138.267 260.361C148.546 252.558 153.013 249.582 155.203 249.321C155.914 249.224 156.834 249.55 157.565 250.238C158.205 250.81 160.248 252.233 162.074 253.336L165.393 255.408L165.705 260.844C165.82 263.824 165.896 267.064 165.819 268.081C165.474 272.902 160.078 287.336 154.459 298.629C150.385 306.766 146.616 313.264 145.749 313.563C145.378 313.691 144.174 312.869 142.769 311.522C137.788 306.707 135.011 305.685 126.549 305.436C118.905 305.252 117.947 305.434 117.286 306.998C116.379 309.142 118.364 312.12 120.263 311.465C120.634 311.337 121.457 310.558 122.057 309.807C125.275 305.529 137.355 307.648 141.811 313.288C142.602 314.252 143.194 315.186 143.145 315.302C143.113 315.462 141.756 315.336 140.166 315.093C135.796 314.422 132.604 314.633 127.864 315.921C122.281 317.451 117.837 319.876 114.224 323.25C112.644 324.736 110.545 326.45 109.531 327.096C108.056 328.001 107.76 328.45 107.89 329.395C107.96 330.064 108.469 331.027 109.051 331.568C110.357 332.9 111.793 332.256 113.416 329.666C117.549 323.143 119.029 321.642 123.474 319.218C127.539 317.023 134.35 316.258 138.733 317.567C140.696 318.177 140.891 319.05 139.394 320.507C135.692 324.011 134.345 325.862 128.338 335.903C126.683 338.652 124.524 341.673 123.57 342.597C121.842 344.183 121.785 344.4 122.356 345.886C123.766 349.558 126.934 349.653 127.253 345.979C127.817 340.389 139.299 321.232 142.849 320.008C143.881 319.652 144.598 320.79 145.143 323.671C145.867 327.381 145.061 331.124 142.341 337.309C140.478 341.466 139.289 343.361 137.521 345.208C135.778 346.998 135.204 347.938 135.299 348.796C135.497 350.163 136.512 351.1 137.693 350.891C140.279 350.444 146.123 336.202 147.16 327.826C147.897 322.078 148.915 322.172 151.421 328.089C153.591 333.131 154.226 337.218 153.829 343.245C153.471 348.764 152.344 351.43 149.428 353.574C147.402 355.114 146.895 356.23 147.55 357.934C148.456 360.294 152.592 360.353 152.769 358.015C152.815 357.405 153.396 354.779 154.052 352.226C156.755 341.493 156.706 337.105 153.602 327.683L151.625 321.682L154.416 323.838C157.872 326.507 159.296 328.391 160.824 332.368C161.655 334.655 161.978 336.227 161.958 338.609C161.905 342.489 162.317 343.683 163.85 344.144C166.816 345.051 166.537 341.039 163.127 333.009C160.119 326.028 159.137 324.932 150.484 318.71L148.217 317.067L148.713 315.559C148.957 314.733 150.919 310.591 153.095 306.277C158.11 296.33 163.555 283.365 166.947 273.087C169.754 264.694 171.077 261.565 172.491 260.136C173.536 259.083 173.935 259.391 176.362 263.157C177.347 264.747 179.279 267.1 180.609 268.374C183.004 270.715 183.038 270.803 185.33 276.892C190.123 289.741 197.463 315.67 197.545 320.146L197.577 321.323L193.895 321.108C186.871 320.71 182.523 322.655 176.792 328.79C173.314 332.514 172.495 334.034 173.133 335.695C173.72 337.225 174.707 337.726 176.111 337.242C177.349 336.814 177.692 336.003 177.45 334.156C176.992 330.651 181.385 326.265 187.452 324.172C190.631 323.076 191.217 323.022 193.164 323.587C195.981 324.348 196.391 325.296 194.286 326.022C190.695 327.261 186.437 331.996 183.813 337.703C182.105 341.41 181.215 344.935 180.606 350.045C180.403 352.194 179.904 354.544 179.544 355.312C178.678 357.194 179.383 359.03 181.282 359.959C182.982 360.857 183.825 360.616 184.461 359.109C184.853 358.182 184.733 357.382 183.894 355.197C183.088 353.099 182.907 351.775 183.043 349.452C183.247 345.966 184.565 340.512 185.907 337.921C187.952 333.751 193.93 327.53 195.208 328.179C195.556 328.355 196.025 330.916 196.522 335.496C196.932 339.364 197.639 344.614 198.092 347.131C199.371 354.114 199.704 357.415 199.407 359.2C199.056 361.45 199.843 363.257 201.452 364.038C202.887 364.731 204.498 364.423 204.65 363.479C204.715 363.16 203.879 360.132 202.785 356.797C199.183 345.468 198.039 339.081 198.408 332.618C198.756 326.707 200.423 325.934 203.597 330.185C204.914 331.908 205.918 334.037 208.217 340.025C211.776 349.291 212.006 350.498 210.796 353.192C209.775 355.524 210.059 356.02 212.761 356.969C214.7 357.637 215.092 356.709 214.402 353.087C213.448 348.169 208.015 333.412 206.064 330.522C203.761 326.96 204.164 326.425 208.141 327.776L211.141 328.77L241.117 406.831C268.978 479.384 299.623 560.283 326.783 633.079L338.125 663.467L344.193 661.374L350.219 659.295L301.872 533.274C256.455 415.003 228.268 340.384 227.629 336.892C227.432 335.772 227.602 335.119 228.425 334.34C230.506 332.335 229.624 328.334 227.127 328.403C224.852 328.445 224.322 328.282 223.389 327.069C222.348 325.696 197.568 261.533 196.68 257.88C196.341 256.512 196.134 254.999 196.206 254.579C196.423 253.316 198.056 254.039 199.142 255.892C199.618 256.767 201.748 259.151 203.827 261.156C205.889 263.117 209.692 267.3 212.273 270.369C220.957 280.688 229.158 288.897 238.471 296.474C244.055 301.032 244.748 302.228 242.563 303.477C239.52 305.17 234.46 311.47 233.618 314.631C233.342 315.617 233.073 317.838 232.975 319.654C232.902 321.411 232.56 323.806 232.186 325.024C231.188 328.388 232.859 331.524 235.253 330.698C236.946 330.114 237.144 328.561 235.97 324.165C234.745 319.637 234.845 316.732 236.399 313.474C237.543 311.099 240.789 307.257 241.65 307.307C241.889 307.323 241.987 310.011 241.84 313.28C241.692 316.548 241.73 320.297 241.993 321.592C242.388 324.079 248.25 338.737 249.232 339.834C250.089 340.726 252.612 340.845 253.261 339.978C254.156 338.779 253.185 336.738 250.442 334.219C248.679 332.55 247.529 331.017 246.551 329.077C243.649 323.347 242.662 313.838 244.473 309.302C245.762 306.086 246.649 306.572 249.209 311.777C251.584 316.501 255.037 321.596 260.215 327.779C262.83 330.935 265.936 334.764 267.086 336.298C269.403 339.409 270.853 339.899 272.506 338.239C273.904 336.767 272.852 335.002 269.417 333.118C265.095 330.748 261.269 326.871 256.242 319.745C251.273 312.649 248.052 304.504 249.91 303.863C251.065 303.464 254.168 305.215 257.434 307.999C262.113 312.027 265.003 315.535 266.86 319.398C268.835 323.568 269.491 323.935 271.085 322C271.709 321.19 272.133 320.104 272.031 319.594C271.945 319.129 270.913 317.901 269.741 316.919C268.628 315.967 265.269 312.82 262.35 309.966C259.39 307.126 255.708 303.991 254.214 303.022L251.434 301.258L254.291 300.421C256.752 299.77 258.042 299.721 262.413 300.391C265.417 300.79 268.631 301.612 270.008 302.275C273.167 303.809 278.947 309.487 280.519 312.607C281.983 315.567 282.773 316.285 284.011 315.857C287.602 314.619 285.976 312.21 276.514 304.733C270.449 299.896 266.298 298.457 256.078 297.528C253.703 297.308 251.757 296.989 251.674 296.77C251.59 296.552 252.478 295.701 253.607 294.866C259.867 290.232 272.985 290.309 277.833 295.022C280.644 297.715 282.542 298.397 283.709 297.054C284.169 296.549 284.091 295.981 283.472 294.611C282.66 292.862 282.544 292.803 276.877 291.194C268.378 288.78 267.038 288.698 261.537 290.2C259.011 290.923 255.23 292.277 253.209 293.222C250 294.725 249.316 295.257 248.201 296.979C247.454 298.078 246.657 299.045 246.368 299.145C244.924 299.643 236.889 292.961 226.094 282.381C213.994 270.468 210.035 264.905 205.514 253.496C203.492 248.353 203.121 247.144 203.33 245.983C203.491 245.185 204.008 244.463 204.503 244.292C204.998 244.121 207.473 244.356 210.031 244.81C212.606 245.308 215.478 245.604 216.445 245.567C217.454 245.516 221.362 246.197 225.171 247.111C237.18 249.898 251.597 251.655 262.871 251.677C266.345 251.716 269.48 251.723 269.761 251.725C270.183 251.728 270.181 252.818 269.754 254.994C268.541 261.451 270.045 268.654 273.894 275.147C275.071 277.117 276.565 279.67 277.201 280.837C278.245 282.704 278.494 282.865 279.535 282.655C283.17 281.896 282.148 278.14 277.668 275.726C273.114 273.238 270.236 265.866 271.309 259.408C271.982 255.562 272.595 255.697 274.264 259.922C276.715 266.304 279.288 269.475 284.849 273.001C288.858 275.528 297.708 279.949 298.368 279.721C299.07 279.479 300.114 276.842 299.812 276.056C299.476 275.182 296.351 273.983 295.278 274.353C291.522 275.649 283.515 270.986 279.512 265.19C277.669 262.46 275.313 256.69 275.806 256.025C276.003 255.808 276.997 255.96 277.991 256.36C288.86 260.926 291.08 261.595 300.162 263.214C303.433 263.818 307.168 264.658 308.477 265.147C311.22 266.081 312.889 265.803 313.063 264.307C313.369 261.331 311.228 260.139 307.495 261.13C303.267 262.291 295.236 260.855 285.879 257.302C280.234 255.141 276.789 252.864 276.266 251.015L275.87 249.618L278.569 248.736C282.796 247.327 291.057 248.388 296.704 251.043C300.253 252.739 300.99 252.831 301.868 251.588C303.69 249.029 301.076 247.456 293.951 246.795C288.258 246.334 280.251 246.176 277.59 246.549C275.052 246.88 274.362 246.178 275.635 244.502C277.178 242.435 280.159 239.971 283.489 237.931C285.954 236.438 287.134 235.981 290.215 235.363C295.685 234.268 299.119 234.569 302.363 236.32C306.046 238.366 308.382 237.511 307.241 234.539C306.62 232.921 304.723 232.487 297.734 232.423C292.631 232.402 291.779 232.497 287.693 233.907C282.657 235.644 278.411 238.099 275.672 240.826C273.459 242.975 273.146 243.133 272.793 242.215C272.374 241.122 276.204 232.228 278.061 230.003C279.564 228.198 280.215 227.825 284.251 226.284C288.229 224.714 289.064 224.574 291.298 224.793C294.194 225.032 294.639 224.73 295.236 221.901C295.752 219.594 295.459 218.953 293.946 219.029C292.144 219.205 284.877 222.801 280.741 225.663C272.839 231.013 270.278 236.153 270.924 245.137L271.107 248.291L269.257 248.83C263.783 250.521 240.713 248.629 227.892 245.43C221.854 243.949 218.628 242.488 214.733 239.525C212.947 238.162 210.764 236.737 209.827 236.367C208.891 235.997 207.994 235.366 207.843 234.973C207.675 234.536 207.624 232.821 207.738 231.049C208.019 226.547 208.604 225.999 217.516 222.429C221.395 220.844 228.525 217.988 233.295 216.045C245.649 211.09 248.74 209.034 258.644 199.282C261.161 196.83 263.425 194.811 263.764 194.843C264.045 194.845 265.643 196.571 267.333 198.66C272.472 205.104 277.276 207.753 285.776 208.83C290.096 209.369 292.947 208.88 293.51 207.548C293.682 207.142 293.553 206.197 293.25 205.41C292.462 203.356 290.707 203.169 289.029 204.886C286.735 207.311 283.758 207.348 278.435 204.928C275.11 203.452 269.688 199.679 269.974 199.086C270.048 198.912 271.223 199.051 272.581 199.424C275.969 200.334 280.877 200.819 283.927 200.608C287.019 200.382 296.059 197.264 298.357 195.58C300.203 194.3 300.448 193.721 299.81 192.06C298.87 189.612 295.969 189.97 295.363 192.653C294.499 196.367 285.618 199.777 279.591 198.688C277.091 198.264 268.794 195.038 268.484 194.353C268.375 194.192 269.563 193.634 271.132 193.093C276.952 191.085 286.472 185.079 291.655 180.074C293.366 178.444 295.762 176.528 296.965 175.767C298.565 174.819 299.222 174.097 299.374 173.154C299.624 171.979 299.557 171.804 298.61 171.041C296.617 169.502 294.323 170.59 292.952 173.835C291.972 176.153 287.607 180.975 283.235 184.562C279.315 187.746 273.119 190.477 267.979 191.211L264.871 191.64L266.489 188.062C269.137 182.298 274.762 176.497 279.22 174.959C281.118 174.304 281.629 173.93 282.053 172.843C282.673 171.293 282.219 169.866 280.941 169.217C279.589 168.496 278.311 169.184 277.049 171.253C276.467 172.295 273.911 175.256 271.403 177.853C268.878 180.407 265.977 183.685 264.926 185.087C263.858 186.445 262.871 187.528 262.697 187.44C262.117 187.145 260.172 176.481 260.352 174.637C260.578 172.183 262.23 167.357 264.234 163.201C266.401 158.741 267.271 157.599 268.791 157.174C271.31 156.552 272.088 153.71 269.983 152.852C268.499 152.275 261.473 154.551 259.555 156.252C257.638 157.953 255.093 158.385 250.317 157.756C247.254 157.327 241.642 155.007 241.239 153.958C241.004 153.346 241.351 153.276 245.791 153.031C249.181 152.851 254.069 151.215 257.448 149.059C264.512 144.692 271.564 136.765 270.641 134.361C270.339 133.574 267.279 132.056 266.577 132.298C265.958 132.512 265.386 135.283 265.594 137.042C266.149 141.652 256.595 148.908 247.549 150.791C243.732 151.563 240.349 151.641 240.064 150.898C239.812 150.243 240.544 149.347 242.594 147.749C246.399 144.753 251.739 138.209 254.293 133.418C254.948 132.202 256.073 130.873 256.791 130.428C257.549 129.968 258.141 129.318 258.147 128.97C258.107 127.647 256.407 125.412 255.148 125.055C253.417 124.563 252.563 125.748 252.824 128.133C252.929 129.136 252.781 130.821 252.447 131.777C251.31 135.387 244.146 144.243 240.249 146.875C238.172 148.284 236.262 148.3 235.758 146.989C235.271 145.721 236.458 140.412 238.194 135.803C241.21 127.833 244.965 121.786 249.105 118.081C251.088 116.308 248.359 113.339 245.593 114.294C244.768 114.578 244.35 115.316 243.783 117.492C243.403 119.058 241.346 123.926 239.22 128.371C235.753 135.656 234.636 138.466 233.486 143.021C233.146 144.326 232.908 144.557 232.138 144.377C230.697 144.033 229.452 141.888 227.518 136.121C225.509 130.28 224.974 126.208 225.442 121.097C225.803 117.656 227.355 114.151 228.758 113.667C230.162 113.182 230.436 111.949 229.412 110.62C228.387 109.291 226.541 108.987 225.131 109.82C224.29 110.308 224.111 110.815 224.284 112.24C224.414 113.186 224.195 115.538 223.833 117.395C222.877 122.575 222.875 126.586 223.844 131.3C224.965 136.655 228.327 144.801 230.274 146.95C231.406 148.193 231.507 148.455 231.079 148.801C230.799 149.046 229.831 149.083 228.846 148.829C224.92 147.857 219.297 142.223 217.343 137.255C216.211 134.428 216.185 134.239 217.069 132.647C218.403 130.158 217.567 128.466 214.216 126.801C212.259 125.843 211.503 125.212 211.117 124.207C210.798 123.377 210.315 122.85 209.835 122.818C208.594 122.751 206.854 125.034 206.51 127.182C205.979 129.939 204.498 132.777 202.859 133.986C200.651 135.539 197.325 136.983 194.491 137.516C190.782 138.202 190.652 137.256 194.087 134.636C200.939 129.352 202.21 127.428 203.487 120.405C203.936 117.923 204.614 114.819 204.995 113.499C206.04 109.526 204.156 106.81 201.06 107.878C199.822 108.305 199.769 109.264 200.91 112.236C203.227 118.267 200.21 127.574 194.576 131.893C192.443 133.52 187.08 135.865 186.862 135.297C186.811 135.166 187.429 133.122 188.193 130.73C190.276 124.467 190.413 122.391 189.604 110.79C189.175 105.048 189.057 99.9909 189.269 99.5711C189.736 98.7171 189.205 96.9698 188.133 96.0033C187.343 95.2858 184.183 95.0892 183.913 95.7266C183.815 95.9584 184.422 98.0259 185.312 100.342C186.429 103.372 187.072 106.021 187.53 109.526C188.755 118.805 188.135 124.859 185.322 132.017C184 135.393 183.754 135.726 182.876 135.385C182.096 135.06 181.762 134.433 180.508 130.559C178.379 123.919 177.735 116.766 178.915 113.142C179.614 111.069 179.235 109.715 177.732 108.6C176.535 107.676 174.562 108.258 173.974 109.649C173.639 110.358 173.775 110.955 174.434 112.064C175.828 114.355 176.241 115.796 176.503 119.765C176.63 121.8 177.047 125.319 177.391 127.675C178.257 133.217 178.256 134.554 177.306 134.881C176.522 135.152 173.858 133.447 169.927 130.151C163.579 124.817 158.305 114.856 159.471 110.346C159.656 109.49 159.666 108.299 159.431 107.687C158.659 105.676 155.636 104.987 154.885 106.681C154.583 107.478 154.845 108.526 156.606 112.868C161.99 126.157 167.511 132.865 176.333 136.85C178.762 137.943 180.678 138.915 180.671 139.017C180.458 139.437 173.129 140.678 171.284 140.622C169 140.518 163.758 137.823 161.944 135.776C161.145 134.913 160.585 133.819 160.321 132.524C159.94 130.923 159.615 130.441 158.686 129.97C155.667 128.438 153.297 130.542 155.172 133.113C156.372 134.777 166.467 141.59 168.629 142.23C171.405 143.005 174.779 143.029 178.092 142.282C179.769 141.902 181.43 141.725 181.803 141.843C184.107 142.731 184.929 155.218 183.754 171.512C182.784 184.567 181.792 190.75 180.337 192.193C179.835 192.712 178.496 194.461 177.43 196.066C175.034 199.566 173.806 200.385 168.003 202.437L163.422 204.017L159.549 200.75C157.431 199.006 154.869 196.474 153.861 195.189C149.48 189.622 144.144 178.891 138.689 164.686C134.661 154.196 133.58 150.164 134.365 148.557C134.585 148.035 136.497 146.683 138.55 145.578C142.912 143.183 144.674 141.684 146.881 138.547C149.04 135.525 150.063 132.103 150.805 125.759C151.128 122.826 151.607 119.691 151.892 118.851C152.803 116.111 150.302 112.519 148.073 113.288C146.876 113.701 146.782 114.674 147.759 119.286C148.88 124.641 148.979 127.577 148.097 131C147.231 134.466 146.059 136.405 142.662 139.854C137.366 145.294 136.314 145.112 138.565 139.287C140.408 134.593 140.919 129.714 140.12 124.347C139.5 120.056 136.876 110.666 135.512 107.722L134.633 105.798L132.807 106.279C130.388 106.916 130.474 107.628 133.347 111.092C138.759 117.639 140.294 128.94 136.883 137.343C134.631 142.921 134.358 142.817 130.986 134.279C124.317 117.523 123.974 116.751 122.64 116.32C121.538 116.007 121.373 116.064 120.7 116.989C119.346 118.941 119.558 119.858 121.868 121.734C126.521 125.574 131.867 138.034 130.951 142.953C130.532 145.028 125.37 141.81 121.606 137.119C118.191 132.852 115.292 127.616 111.188 118.39C107.435 109.835 106.919 109.221 105.44 110.968ZM211.014 129.539C211.306 129.933 212.835 132.821 214.449 135.927C218.856 144.603 219.581 145.64 222.885 147.915C224.529 149.031 226.985 150.312 228.435 150.802C229.844 151.306 231.138 151.998 231.272 152.348C232.245 154.883 217.034 180.028 209.397 188.503C205.533 192.806 203.499 194.448 199.796 196.369C197.933 197.358 196.261 198.727 194.395 200.806L191.699 203.766L190.001 203.361C189.057 203.093 187.125 202.324 185.715 201.573L183.16 200.277L183.765 194.425C184.086 191.246 184.642 185.51 185.051 181.707C185.9 173.692 186.369 164.324 186.322 157.262C186.287 152.423 185.732 143.309 185.429 142.523C185.329 142.261 185.242 141.548 185.213 140.865L185.223 139.673L188.946 139.874C196.269 140.318 202.688 137.559 207.273 131.968C209.819 128.862 210.281 128.604 211.014 129.539ZM237.826 154.442C245.399 159.799 250.029 161.023 256.72 159.457C258.991 158.921 260.949 158.543 261.123 158.631C261.745 158.911 261.475 160.886 260.203 165.73C258.015 173.909 258.005 176.437 260.216 184.386C261.027 187.472 261.629 190.135 261.572 190.352C260.984 191.743 255.931 187.349 253.427 183.263C251.733 180.432 250.36 176.005 250.563 173.856C250.625 173.043 251.394 171.639 252.274 170.643C254.181 168.549 254.241 167.489 252.47 165.675C250.64 163.832 249.905 163.986 248.983 166.333C247.581 169.985 248.9 178.291 251.726 183.701C253.64 187.347 254.414 188.268 258.021 191.33C259.55 192.634 260.764 193.848 260.691 194.022C260.372 194.775 253.781 200.861 249.047 204.721C241.884 210.657 236.598 213.569 228.259 216.199C221.852 218.26 221.712 218.259 218.962 217.673C217.439 217.358 214.237 217.175 211.839 217.26C205.769 217.523 205.554 217.448 202.213 213.008C200.621 210.933 199.229 208.89 199.078 208.496C198.574 207.185 203.987 198.883 211.126 190.085C218.626 180.766 224.842 171.147 231.053 159.204C232.887 155.701 234.558 152.748 234.764 152.677C234.929 152.62 236.315 153.429 237.826 154.442ZM189.894 270.764C192.72 277.758 198.307 291.818 202.251 302.089L209.476 320.782L206.834 321.693C203.202 322.946 201.985 322.821 200.751 321.069C200.209 320.266 199.582 318.998 199.404 318.168C194.397 298.315 193.504 295.257 188.376 280.444C182.375 263.112 181.556 260.127 182.455 258.085C182.822 257.216 182.905 257.187 183.776 257.629C184.572 257.998 185.467 259.966 189.894 270.764ZM209.689 323.529C210.427 323.869 210.627 324.146 210.465 324.697C210.116 325.857 206.986 325.254 206.466 323.899C206.164 323.112 208.23 322.894 209.689 323.529Z" fill="#E6B31E"/>
<path d="M238.617 77.2001C236.33 76.3382 233.776 76.5164 231.946 77.6567C230.154 78.7852 229.094 80.7401 229.18 82.8006C229.236 83.9752 229.619 84.992 230.774 86.9428C232.869 90.4582 233.453 91.9001 233.572 93.7922C233.632 94.6374 233.519 95.9886 233.323 96.9309C233.285 97.0848 233.6 97.0256 234.893 96.6207C236.991 95.9724 238.023 95.7324 239.381 95.6188C240.689 95.4962 241.615 95.5677 244.289 95.9658C246.805 96.3452 247.811 96.3848 248.914 96.1665C251.704 95.5944 253.534 93.5646 253.766 90.7943C254.059 87.3515 251.123 84.0089 247.208 83.3143C246.519 83.1928 245.955 83.1988 244.932 83.3256L243.589 83.4972L243.45 82.6837C243.274 81.6577 242.66 80.4213 241.906 79.5225C241.17 78.659 239.658 77.5945 238.617 77.2001Z" fill="#E6B31E"/>
</g>
<path d="M203.714 35.7497C202.041 35.0033 199.771 35.0049 198.255 35.7541L197.397 36.1908L196.923 35.2319C196.493 34.344 196.372 34.2139 195.181 33.2989C194.067 32.4429 193.781 32.2788 192.937 32.0573C190.177 31.3304 187.344 32.2559 186.011 34.3534C185.341 35.418 184.991 36.8955 185.158 38.0462C185.353 39.4774 186 40.5326 188.085 42.7105C190.733 45.4884 191.363 46.5861 191.749 49.0938L191.968 50.4509L193.409 49.4964C196.039 47.7454 197.222 47.3353 200.813 46.9171C203.5 46.6037 204.68 46.1729 205.769 45.1514C208.734 42.3202 207.681 37.5161 203.714 35.7497Z" fill="#E6B31E"/>
<path d="M299.097 0.29919C297.242 0.911238 295.654 2.39154 295.085 4.04265C294.601 5.40908 294.851 7.30216 295.654 8.39815C295.787 8.59742 296.439 9.39451 297.108 10.1774C299.448 12.9672 299.849 13.7927 299.999 16.184L300.1 17.9062L301.437 17.1946C304.462 15.5862 305.883 15.1734 309.376 14.9456C312.886 14.7037 313.772 14.4617 315.226 13.2945C317.95 11.131 318.067 7.4018 315.477 5.22404C313.538 3.6014 310.897 3.18863 308.423 4.12805C308.005 4.28462 307.638 4.39849 307.621 4.38426C307.604 4.35579 307.454 4.01418 307.303 3.61564C306.718 2.06417 305.498 0.953939 303.727 0.341891C302.473 -0.0993534 300.334 -0.113587 299.097 0.29919Z" fill="#E6B31E"/>
<path d="M151.417 64.5176C147.982 64.1052 144.542 65.236 142.425 67.4594C140.355 69.6536 139.576 72.7476 140.404 75.5932C140.885 77.2131 141.761 78.4997 144.017 80.823C148.103 85.0045 149.4 86.8151 150.216 89.4142C150.589 90.573 150.899 92.4977 150.955 93.8803C150.957 94.108 151.368 93.9167 153.002 92.9049C155.655 91.2756 156.988 90.5841 158.812 89.9562C160.563 89.3334 161.857 89.1133 165.663 88.7448C169.244 88.4049 170.637 88.1129 172.074 87.4272C175.703 85.6649 177.514 82.1999 176.877 78.254C176.093 73.3484 170.913 69.6985 165.306 70.0815C164.319 70.1501 163.547 70.3534 162.187 70.884L160.405 71.5871L159.933 70.5003C159.339 69.129 158.071 67.6159 156.727 66.6222C155.42 65.6715 152.98 64.7084 151.417 64.5176Z" fill="#E6B31E"/>
<path d="M317.695 121.781C315.178 120.914 312.434 121.153 309.891 122.455C308.867 122.985 307.375 124.095 306.521 124.974C305.625 125.888 304.466 127.599 303.992 128.708C303.091 130.815 302.839 133.231 303.303 135.272C303.407 135.712 303.765 137.022 304.107 138.184C304.877 140.856 305.474 143.794 305.514 145.174C305.567 147.316 305.048 149.875 304.061 152.295C303.804 152.908 303.584 153.461 303.568 153.522C303.558 153.574 304.775 153.231 306.289 152.748C310.166 151.503 312.027 151.129 314.31 151.125C315.358 151.13 316.302 151.252 320.831 152.001C321.841 152.171 323.042 152.306 323.509 152.306C326.442 152.333 329.3 151.088 331.623 148.773C332.317 148.085 332.445 147.911 333.378 146.379C334.269 144.917 334.414 144.625 334.653 143.885C335.862 140.055 335.089 136.464 332.498 133.874C331.629 133.004 329.955 132.111 328.706 131.845C327.147 131.514 325.614 131.558 323.981 131.975C323.538 132.093 323.185 132.167 323.18 132.141C323.175 132.115 323.225 131.631 323.286 131.061C323.733 126.791 321.5 123.074 317.695 121.781Z" fill="#E6B31E"/>
<path d="M313.631 53.4967C312.338 52.2715 310.203 51.5618 308.499 51.7911L307.53 51.9326L307.442 50.883C307.37 49.9139 307.305 49.7538 306.528 48.521C305.801 47.3678 305.593 47.124 304.882 46.6514C302.561 45.1039 299.553 45.0861 297.517 46.6397C296.49 47.4302 295.609 48.709 295.337 49.8427C294.985 51.2485 295.199 52.4429 296.345 55.1424C297.795 58.5821 297.978 59.8111 297.404 62.2885L297.103 63.6322L298.814 63.1868C301.939 62.3652 303.204 62.3503 306.734 63.082C309.376 63.6292 310.646 63.594 312.051 62.9751C315.894 61.2434 316.699 56.3992 313.631 53.4967Z" fill="#E6B31E"/>
<path d="M285.792 88.0935C283.984 88.7055 282.436 90.1859 281.882 91.837C281.41 93.2034 281.654 95.0965 282.436 96.1925C282.567 96.3917 283.202 97.1888 283.854 97.9717C286.134 100.761 286.525 101.587 286.672 103.978L286.77 105.701L288.073 104.989C291.022 103.38 292.406 102.968 295.811 102.74C299.232 102.498 300.096 102.256 301.513 101.089C304.168 98.9253 304.282 95.1961 301.757 93.0184C299.867 91.3957 297.294 90.9829 294.882 91.9224C294.475 92.0789 294.117 92.1928 294.101 92.1786C294.084 92.1501 293.938 91.8085 293.791 91.4099C293.221 89.8585 292.032 88.7483 290.305 88.1362C289.083 87.695 286.998 87.6807 285.792 88.0935Z" fill="#E6B31E"/>
<path d="M248.426 22.7511C245.194 21.5517 241.567 21.8462 238.95 23.5078C236.386 25.1519 234.849 27.9684 234.936 30.9186C234.995 32.6002 235.521 34.0508 237.127 36.8274C240.042 41.8307 240.845 43.8872 240.982 46.5957C241.053 47.8054 240.869 49.7427 240.575 51.0954C240.519 51.3164 240.967 51.2268 242.809 50.6269C245.797 49.666 247.266 49.3064 249.196 49.1227C251.054 48.927 252.367 49.0151 256.157 49.5442C259.721 50.0489 261.148 50.0902 262.717 49.7605C266.687 48.8981 269.319 45.9623 269.696 41.9905C270.171 37.0545 266.059 32.3116 260.515 31.3769C259.54 31.2135 258.739 31.2308 257.284 31.4282L255.376 31.6946L255.191 30.5316C254.96 29.0645 254.109 27.3029 253.054 26.0271C252.024 24.8015 249.896 23.3 248.426 22.7511Z" fill="#E6B31E"/>
<defs>
<clipPath id="clip0">
<rect width="279.444" height="599.281" fill="white" transform="matrix(0.945329 -0.326117 0.358486 0.933535 0 146.551)"/>
</clipPath>
</defs>
</svg>
